<?xml version="1.0" standalone="no"?>
<!DOCTYPE svg PUBLIC "-//W3C//DTD SVG 20010904//EN"
 "http://www.w3.org/TR/2001/REC-SVG-20010904/DTD/svg10.dtd">
<svg version="1.0" xmlns="http://www.w3.org/2000/svg"
 width="700.000000pt" height="700.000000pt" viewBox="0 0 700.000000 700.000000"
 preserveAspectRatio="xMidYMid meet">
<metadata>
Created by potrace 1.14, written by Peter Selinger 2001-2017
</metadata>
<g transform="translate(0.000000,700.000000) scale(0.100000,-0.100000)"
fill="#000000" stroke="none">
<path d="M122 6974 c-56 -28 -107 -93 -117 -148 -3 -17 -4 -1525 -3 -3351 3
-3143 4 -3322 21 -3352 22 -41 59 -78 100 -100 30 -17 209 -18 3362 -21 3039
-2 3334 -1 3373 14 51 19 99 65 123 119 18 38 19 168 19 3355 0 2134 -3 3327
-10 3349 -15 52 -56 105 -103 132 l-42 24 -3336 2 -3335 3 -52 -26z"/>
</g>
</svg>
