<svg width="32" height="32" viewBox="0 0 32 32" fill="none" xmlns="http://www.w3.org/2000/svg">
<rect width="32" height="32" rx="1" fill="#292525"/>
<rect x="4" y="4" width="24" height="10" rx="1" fill="#D9D9D9"/>
<path d="M23.3846 6L25.9273 6" stroke="#7C7676" stroke-width="1.5" stroke-linecap="round"/>
<path d="M6 6H10.6154" stroke="#7C7676" stroke-width="1.5" stroke-linecap="round"/>
<rect x="13" y="6" width="7" height="7" rx="1" fill="#7C7676"/>
<rect x="22" y="16" width="5.75" height="5.75" rx="1" fill="#9E9E9E"/>
<circle cx="24.875" cy="18.875" r="1.4375" fill="#2FDC4A"/>
<circle cx="16" cy="19" r="3" fill="#171717"/>
<ellipse cx="16" cy="19" rx="1.36364" ry="1.36364" fill="#767676"/>
<circle cx="7" cy="19" r="3" fill="#171717"/>
<ellipse cx="7.00002" cy="19" rx="1.36364" ry="1.36364" fill="#767676"/>
<circle cx="7" cy="26" r="3" fill="#171717"/>
<ellipse cx="7.00002" cy="26" rx="1.36364" ry="1.36364" fill="#767676"/>
<circle cx="16" cy="26" r="3" fill="#171717"/>
<ellipse cx="16" cy="26" rx="1.36364" ry="1.36364" fill="#767676"/>
<circle cx="25" cy="26" r="3" fill="#171717"/>
<ellipse cx="25" cy="26" rx="1.36364" ry="1.36364" fill="white"/>
</svg>
