<svg viewBox="0 0 48 48" fill="none" xmlns="http://www.w3.org/2000/svg">
<path d="M37 21C37.5523 21 38 21.4477 38 22L38 26C38 26.5523 37.5523 27 37 27L11 27C10.4477 27 10 26.5523 10 26L10 22C10 21.4477 10.4477 21 11 21L37 21Z" fill="currentColor"/>
<path d="M29.4866 11.8192C29.8033 11.3667 30.4269 11.2568 30.8793 11.5736L34.1559 13.8679C34.6083 14.1847 34.7183 14.8082 34.4015 15.2606L19.4885 36.5586C19.1717 37.011 18.5482 37.1209 18.0958 36.8041L14.8192 34.5098C14.3667 34.1931 14.2568 33.5695 14.5736 33.1171L29.4866 11.8192Z" fill="currentColor"/>
<path d="M34.4015 33.1171C34.7183 33.5695 34.6083 34.1931 34.1559 34.5098L30.8793 36.8041C30.4269 37.1209 29.8033 37.011 29.4866 36.5586L14.5736 15.2606C14.2568 14.8082 14.3667 14.1847 14.8192 13.8679L18.0958 11.5736C18.5482 11.2568 19.1717 11.3667 19.4885 11.8192L34.4015 33.1171Z" fill="currentColor"/>
</svg>
